<svg viewBox="90 40 140 135" xmlns="http://www.w3.org/2000/svg">
  <g transform="translate(0,320) scale(0.05,-0.05)" fill="#18181b" stroke="none">
    <path d="M3060 5380 c-934 -88 -1516 -1202 -1007 -1927 340 -485 1211 -407 1547 137 l43 70 299 0 299 0 -51 -95 c-57 -106 -136 -230 -206 -323 l-47 -62 178 0 177 0 83 165 c451 901 -18 1925 -928 2026 -195 22 -240 23 -387 9z m476 -309 c442 -150 783 -626 760 -1059 l-6 -112 -270 -5 -270 -5 98 192 97 192 -17 156 c-24 212 -96 233 -168 51 -318 -797 -591 -1101 -989 -1101 -827 0 -777 1381 60 1683 249 90 459 92 705 8z" />
  </g>
</svg>
