<svg version="1.0" xmlns="http://www.w3.org/2000/svg" width="320.000000pt" height="320.000000pt" viewBox="0 0 320.000000 320.000000" preserveAspectRatio="xMidYMid meet" style="width: 482.4px; height: auto;"> <g transform="translate(0.000000,320.000000) scale(0.050000,-0.050000)" fill="#000000" stroke="none">  <path d="M3060 5380 c-934 -88 -1516 -1202 -1007 -1927 340 -485 1211 -407 1547 137 l43 70 299 0 299 0 -51 -95 c-57 -106 -136 -230 -206 -323 l-47 -62 178 0 177 0 83 165 c451 901 -18 1925 -928 2026 -195 22 -240 23 -387 9z m476 -309 c442 -150 783 -626 760 -1059 l-6 -112 -270 -5 -270 -5 98 192 97 192 -17 156 c-24 212 -96 233 -168 51 -318 -797 -591 -1101 -989 -1101 -827 0 -777 1381 60 1683 249 90 459 92 705 8z" class=""></path> <path d="M2368 2677 c-5 -8 -6 -329 -3 -715 l5 -702 106 0 105 0 -5 714 -6 715 -97 0 c-53 1 -100 -5 -105 -12z" class=""></path> <path d="M1500 2641 c0 -26 -107 -306 -389 -1022 -72 -183 -131 -337 -131 -344 0 -6 52 -12 116 -12 l115 -1 57 166 c31 91 62 176 69 188 9 14 111 23 274 25 l259 4 74 -188 73 -187 124 -6 c96 -5 122 0 113 20 -6 14 -57 139 -114 276 -56 138 -111 268 -121 290 -10 22 -85 211 -167 420 l-149 380 -102 6 c-62 4 -101 -2 -101 -15z m126 -306 c21 -91 134 -407 164 -458 48 -84 41 -87 -182 -81 -188 6 -211 10 -202 40 51 168 187 544 197 544 7 0 17 -20 23 -45z" class=""></path> <path d="M3150 2282 c-569 -146 -461 -1042 125 -1042 183 0 445 173 445 294 0 53 -168 50 -207 -4 -129 -178 -372 -166 -487 24 -96 159 -98 158 344 149 l390 -8 0 58 c-1 330 -317 604 -610 529z m260 -200 c33 -18 80 -73 105 -122 l46 -90 -283 -6 c-322 -6 -310 -10 -279 82 54 166 244 228 411 136z"></path> <path d="M4331 2285 c-21 -5 -73 -31 -115 -57 -90 -57 -92 -58 -89 -13 2 28 -16 36 -92 41 l-95 6 0 -456 c0 -251 -6 -476 -13 -501 -11 -43 -6 -45 96 -45 l107 0 -7 306 c-10 461 35 556 250 527 l87 -12 0 109 c0 117 -11 125 -129 95z" class=""></path> <path d="M4798 2250 c-87 -45 -218 -205 -218 -267 0 -61 216 -26 230 37 13 60 125 138 185 129 14 -2 43 -5 66 -6 61 -4 139 -92 139 -157 0 -79 -59 -109 -258 -129 -276 -28 -388 -112 -391 -295 -4 -275 380 -422 606 -231 71 59 91 62 77 10 -13 -51 20 -74 104 -72 l67 1 -3 360 c-5 407 -9 435 -76 525 -110 148 -346 190 -528 95z m402 -608 c-12 -131 -40 -176 -134 -215 -195 -82 -359 35 -283 201 24 52 49 61 237 82 61 6 124 20 140 31 49 31 52 24 40 -99z" class=""></path>  </g> </svg>